PathFileType	4	(X/Y/Z)	C:\Users\WrightLab\Desktop\Jo\P3_6.trc
DataRate	CameraRate	NumFrames	NumMarkers	Units	OrigDataRate	OrigDataStartFrame	OrigNumFrames
100.00	100.00	       16	19	mm	100.00	266	       530
Frame#	Time	Headset_Front			Headset_Back			Headset_Left			Headset_Right			Left_Shoulder			Right_Shoulder			Sternum			C7			Left Elbow			Right Elbow			Left Wrist			Right Wrist			Left ASIS			Right ASIS			S2			Left Knee			Right Knee			Left Ankle			Right Ankle			
		X1	Y1	Z1	X2	Y2	Z2	X3	Y3	Z3	X4	Y4	Z4	X5	Y5	Z5	X6	Y6	Z6	X7	Y7	Z7	X8	Y8	Z8	X9	Y9	Z9	X10	Y10	Z10	X11	Y11	Z11	X12	Y12	Z12	X13	Y13	Z13	X14	Y14	Z14	X15	Y15	Z15	X16	Y16	Z16	X17	Y17	Z17	X18	Y18	Z18	X19	Y19	Z19	

266	2.650	-496.35312	1454.49170	198.32269	-477.48538	1619.32751	452.96585	-593.29346	1550.27246	358.50214	-384.03076	1507.28113	287.48459	-633.31940	1332.72021	522.78900	-317.44067	1335.51306	372.32178	-540.55164	1221.14551	328.82458	-446.88184	1382.73059	491.00262	-715.01862	1004.97174	552.01831	-189.76054	1036.25610	246.43430	-774.10089	831.53351	449.79504	-182.35591	962.41199	26.77484	-629.81024	847.98755	421.79257	-432.84561	857.88770	263.31216	-406.55151	932.52319	515.73792	-526.30804	441.26071	562.87524	-494.39032	443.40527	248.92729	-374.99207	174.37962	705.29938	-531.05212	108.70914	249.56038	
267	2.660	-499.73157	1454.86841	190.22217	-481.58328	1619.62341	444.25485	-597.34381	1551.40637	349.52094	-387.73157	1507.88940	279.48486	-638.05164	1333.93896	513.61084	-321.99438	1336.14307	364.81299	-544.80157	1222.27698	320.05038	-451.98434	1384.11511	482.96762	-718.01233	1005.92242	545.02283	-193.86212	1037.39233	238.93828	-776.06158	830.57074	445.16000	-183.25340	963.30176	19.37399	-635.03876	848.76538	410.80161	-437.29330	860.22308	253.44400	-412.86472	933.43732	506.85410	-538.04523	440.45386	551.10431	-498.92969	443.02203	242.13811	-381.16714	178.72569	699.10962	-533.48517	108.85863	247.05829	
268	2.670	-503.45645	1456.01196	180.78224	-485.89194	1620.34192	435.84219	-600.90173	1552.29810	340.24847	-391.16312	1508.57141	271.11398	-642.81885	1335.19946	504.83652	-325.91431	1336.95825	357.95807	-548.93341	1223.89319	311.00620	-456.35126	1384.89783	474.54236	-720.31293	1006.49994	537.90204	-198.42496	1038.74194	231.14105	-778.16498	830.20020	440.09561	-184.12617	964.40289	11.89339	-640.66516	850.18237	399.82126	-440.92807	860.63794	250.17868	-419.84003	933.69348	497.87717	-550.20288	439.30518	539.25970	-502.48175	442.52884	237.32401	-388.18686	183.29509	693.09174	-534.09247	108.14458	245.24699	
269	2.680	-505.79324	1456.58447	172.87961	-490.05685	1621.73303	427.26566	-604.68683	1553.06885	330.98013	-394.43292	1509.22498	262.61353	-647.61511	1336.71179	495.52921	-330.45419	1337.56116	350.20737	-552.94489	1225.11853	302.07883	-461.32935	1385.60962	466.49017	-723.39044	1007.89392	531.34290	-201.06197	1039.78748	223.40134	-779.69397	829.85120	436.49466	-184.77309	965.24280	4.68339	-645.81610	851.36914	388.54517				-426.27518	934.32227	489.17310	-563.09290	437.88464	526.25153	-505.21716	443.81735	231.51276	-396.37979	188.21628	685.38293	-535.54077	108.11140	242.95944	
270	2.690	-509.22845	1457.21960	164.22380	-494.29681	1622.20142	418.74359	-608.26190	1553.38708	322.11200	-398.02197	1510.03992	255.26862	-652.44080	1337.93457	486.53854	-334.23212	1338.93750	342.54318	-557.15515	1226.46570	293.25543	-465.67200	1386.66516	458.06503	-726.08850	1008.93188	524.05505	-205.16513	1041.46838	215.99448	-781.22083	829.24207	431.61438	-185.75810	966.47345	-2.53541	-650.71014	852.48730	378.07227				-432.17310	935.27631	480.29404	-577.07227	437.06564	513.31366	-507.70703	443.47220	227.71339	-404.30579	192.95244	676.96857	-536.11121	107.54124	242.44420	
271	2.700	-511.59552	1457.65930	156.34090	-498.62073	1622.69238	410.19919	-611.87042	1554.02075	314.27597	-401.18033	1510.51489	247.98897	-657.21722	1339.34644	477.76755	-338.89502	1339.27124	335.47116	-560.93097	1227.80969	284.04800	-470.99469	1387.25562	450.34549	-728.73120	1010.18414	517.81769	-208.18741	1042.70508	209.02280	-782.91394	828.97076	427.08875	-186.86375	967.44543	-9.83946	-654.97455	853.36871	367.08133				-438.69223	936.23602	472.84781	-589.99878	435.70157	498.70993	-508.93506	444.16470	222.90166	-414.21564	198.51024	668.64801	-536.58545	107.22177	241.08594	
272	2.710	-514.53009	1458.28650	147.28174	-503.55353	1623.60522	402.51099	-616.35925	1554.47009	304.53979	-404.67685	1511.32275	239.94891	-661.77863	1340.46875	468.75156	-342.80594	1339.66052	328.63696	-565.14081	1228.99609	275.50671	-474.44260	1386.30994	440.44354	-731.57098	1010.96063	510.66406	-212.38387	1043.22131	201.45410	-784.86737	828.21777	422.12158	-187.66765	967.97540	-16.30236	-659.80267	854.36890	356.65158				-444.63065	936.77600	464.14258	-603.39661	434.44580	483.67017	-509.61761	443.56116	218.97296	-424.36380	203.99606	658.71033	-536.84998	106.67283	240.83153	
273	2.720	-516.95129	1458.72668	139.36740	-507.97327	1623.91248	394.31549	-619.90234	1555.15552	295.64703	-408.12869	1512.29797	231.39464	-666.88239	1341.53442	459.99347	-347.32895	1340.15222	321.88773	-569.35162	1230.31641	266.29230	-480.11734	1386.95117	432.73587	-734.90375	1012.07874	504.04254	-215.56656	1044.98035	193.99625	-786.69940	827.86078	417.33597	-188.68877	969.05267	-23.87703	-664.30975	855.19037	346.31107				-450.36148	936.77539	457.11884	-616.37946	432.66592	467.07150	-511.11417	442.89493	214.59196	-435.32028	209.53140	649.01801	-536.65753	106.59118	240.48183	
274	2.730	-519.84827	1459.27185	131.30070	-512.38422	1624.48804	385.84811	-623.94592	1555.72241	286.60919	-411.37476	1512.55322	225.67079	-671.61493	1342.23792	451.29587	-351.69229	1340.54492	314.50668	-573.18170	1231.08081	258.22998	-484.06882	1387.05261	424.07352	-737.19427	1012.36060	496.96927	-218.70444	1045.73462	186.33594	-788.67487	827.53107	412.09531	-189.47330	969.62488	-30.23222	-668.53278	856.12659	336.09982				-455.85690	937.90381	449.18405	-629.27887	431.49188	450.35901	-512.15222	441.71915	210.04042	-446.32840	214.59152	637.39905	-536.13495	106.11026	239.67964	
275	2.740	-522.18475	1460.12622	123.16536	-517.15100	1624.95081	377.82712	-628.10004	1556.39417	277.67633	-414.74445	1513.30261	217.90076	-676.58136	1342.79980	442.53781	-355.59610	1341.23877	306.87152	-577.37360	1231.81140	249.68408	-488.86426	1387.90967	416.68488	-740.59192	1012.91467	490.39673	-222.08595	1046.46985	178.89749	-790.64734	826.81958	406.68240	-190.68117	970.59259	-37.33496	-673.30615	856.66046	326.77957				-461.52454	937.28619	441.29712	-642.04932	430.78070	432.97195	-512.79291	441.25253	206.27531	-459.95087	220.40323	625.23596	-536.64197	106.18390	238.71120	
276	2.750	-524.82727	1460.88733	115.18438	-522.03638	1625.58313	369.79816	-631.41675	1556.61609	268.30051	-417.78156	1513.43005	212.16579	-681.52277	1343.48645	433.74780	-360.06686	1341.34192	299.91916	-581.43292	1232.37427	241.05769	-493.87830	1388.65564	408.68970	-744.44482	1013.33020	483.77481	-225.13773	1047.35388	172.02654	-793.02246	826.22577	401.05640	-191.52499	971.33051	-44.11288	-677.96887	856.79120	317.59943	-468.07108	866.96399	180.19559	-466.71509	938.02051	434.18442	-654.48737	429.92935	415.58896	-513.31921	440.32758	203.61353	-472.48303	225.12152	611.98395	-536.64526	106.35446	238.14383	
277	2.760	-527.31183	1461.14880	106.70591	-526.50757	1625.82410	361.42340	-635.01312	1557.17102	259.06396	-421.32919	1514.11658	204.43665	-686.80371	1343.76953	425.47195	-364.26495	1341.92371	292.15097	-585.71399	1232.39795	233.20029	-497.71075	1388.40564	400.04742	-748.19342	1013.60992	477.12823	-228.00966	1048.34644	165.23219	-795.38342	825.48920	395.47531	-193.42845	972.21167	-49.94811	-682.15332	857.24982	308.11121	-470.91772	866.16522	173.07504	-471.21771	938.03467	426.95145	-666.83008	430.15219	397.40631	-514.19092	439.69662	199.83109	-485.38504	229.12856	598.18677	-537.02356	106.47187	237.80286	
278	2.770	-529.60992	1461.85046	98.17635	-531.38373	1625.96228	353.18149	-639.36932	1557.62207	249.99229	-424.77161	1514.83264	196.27890	-691.88879	1343.90088	416.65182	-369.13565	1342.32007	284.30466	-589.51672	1232.38062	225.31392	-502.69638	1389.38696	392.49173	-751.58740	1013.80017	469.85986	-231.13023	1049.94165	158.46948	-797.82050	825.24463	389.88120	-194.56546	972.73395	-56.35988	-686.57275	857.40967	299.38092				-476.93991	938.20630	419.55295	-679.43744	430.68399	379.62396	-515.22302	439.44577	197.60352	-497.66486	232.84822	582.81140	-537.37274	106.49008	237.41563	
279	2.780	-532.29077	1462.38196	89.60019	-536.41064	1626.51111	344.78485	-643.14606	1558.11987	240.28003	-427.68811	1515.21228	187.99193	-697.10962	1344.32361	408.04926	-373.49277	1343.14502	277.48807	-593.75995	1232.70142	217.25157	-508.37073	1390.69580	385.10757	-755.41565	1013.97351	462.60693	-234.06044	1050.58313	151.54254	-800.29224	824.52808	383.62433	-195.26399	973.55023	-62.74483	-690.95264	857.74695	290.36273				-481.20816	938.45129	412.77197	-690.75317	431.37726	360.87418	-516.14453	439.12897	194.44743	-510.94894	236.79393	567.80884	-536.91412	106.22440	236.57204	
280	2.790	-534.43524	1462.25513	81.75829	-541.61572	1627.04822	336.48514	-646.89667	1558.12573	231.18369	-431.18011	1514.93030	183.96947	-701.89606	1344.40430	399.50470	-378.32080	1343.63269	269.91064	-597.77148	1232.45471	208.89499	-513.57007	1390.82898	376.90131	-758.67700	1013.60840	455.70657	-237.09213	1051.58301	144.85440	-802.98743	824.20850	377.39438	-196.85271	974.34088	-68.77138	-695.21521	858.35522	281.68082				-485.80161	939.04865	405.82660	-701.99615	432.32339	342.09454	-517.79633	439.05774	191.14867	-523.51044	240.91743	553.30865	-536.87781	106.21909	236.16052	
281	2.800	-536.47046	1462.23474	74.23012	-546.58386	1627.24829	327.81259	-650.51245	1558.50342	221.42516	-434.60825	1515.45862	175.27908	-707.06689	1344.76611	390.95264	-383.06284	1344.43201	262.08072	-601.83954	1232.07483	201.45540	-519.40436	1391.61353	369.39914	-762.63202	1014.31195	448.45010	-240.04123	1053.06323	138.66441	-805.80457	823.87598	370.87149	-198.29140	975.12567	-74.24125	-699.31689	858.81622	272.81427				-490.08246	939.83765	398.30856	-712.79565	433.98889	323.24640	-519.11603	439.37790	188.63637	-536.14825	243.74747	538.46960	-537.56067	105.52558	235.70314	
